<svg width="256" height="256" viewBox="0 0 256 256" fill="none" xmlns="http://www.w3.org/2000/svg" role="img" aria-labelledby="title desc">
  <title id="title">MK cutout manga app icon</title>
  <desc id="desc">A red manga app icon with a black ink slab and bold white slanted MK cutout lettering.</desc>
  <defs>
    <filter id="shadow" x="8" y="8" width="240" height="240" filterUnits="userSpaceOnUse" color-interpolation-filters="sRGB">
      <feDropShadow dx="0" dy="16" stdDeviation="15" flood-color="#020617" flood-opacity="0.22"/>
    </filter>
    <linearGradient id="red" x1="38" y1="28" x2="222" y2="224" gradientUnits="userSpaceOnUse">
      <stop offset="0" stop-color="#FF5A64"/>
      <stop offset="0.42" stop-color="#E63946"/>
      <stop offset="1" stop-color="#B80F24"/>
    </linearGradient>
    <clipPath id="badgeClip">
      <circle cx="128" cy="128" r="104"/>
    </clipPath>
  </defs>

  <g filter="url(#shadow)">
    <circle cx="128" cy="128" r="104" fill="url(#red)"/>
    <circle cx="128" cy="128" r="94" stroke="#0F172A" stroke-width="8"/>
  </g>

  <g clip-path="url(#badgeClip)">
    <path d="M24 80L221 42L236 170L38 210L24 80Z" fill="#0F172A"/>
    <path d="M34 93L226 56" stroke="#FFFFFF" stroke-width="4" opacity="0.14" stroke-linecap="round"/>
    <path d="M33 190L227 151" stroke="#FFFFFF" stroke-width="4" opacity="0.14" stroke-linecap="round"/>
  </g>

  <g transform="rotate(-10 128 128)">
    <text x="128" y="164" text-anchor="middle" fill="#0F172A" stroke="#0F172A" stroke-width="18" stroke-linejoin="round" paint-order="stroke" font-family="Arial Black, Impact, Inter, ui-sans-serif, system-ui, sans-serif" font-size="112" font-weight="950" font-style="italic" letter-spacing="-7">MK</text>
    <text x="128" y="164" text-anchor="middle" fill="#FFFFFF" stroke="#FFFFFF" stroke-width="2.5" stroke-linejoin="round" paint-order="stroke" font-family="Arial Black, Impact, Inter, ui-sans-serif, system-ui, sans-serif" font-size="112" font-weight="950" font-style="italic" letter-spacing="-7">MK</text>
  </g>

  <path d="M38 64H79M29 86H63M187 58H222M198 80H236" stroke="#0F172A" stroke-width="6" stroke-linecap="round"/>
  <path d="M47 204H96M162 204H211" stroke="#FFFFFF" stroke-width="5" stroke-linecap="round" opacity="0.86"/>
</svg>
